<svg width="161" height="95" viewBox="0 0 161 95" fill="none" xmlns="http://www.w3.org/2000/svg">
<path d="M44.0781 44.2656L40.6797 64H34.0703L38.4766 38.6406H44.6406L44.0781 44.2656ZM42.1797 50.4297L40.4219 50.4531C40.6094 48.9219 40.9531 47.4141 41.4531 45.9297C41.9688 44.4453 42.6719 43.1094 43.5625 41.9219C44.4688 40.7344 45.5781 39.7969 46.8906 39.1094C48.2031 38.4219 49.7344 38.1016 51.4844 38.1484C52.7812 38.1797 53.8594 38.4453 54.7188 38.9453C55.5781 39.4453 56.2578 40.1094 56.7578 40.9375C57.2578 41.7656 57.5859 42.7109 57.7422 43.7734C57.9141 44.8359 57.9453 45.9375 57.8359 47.0781L55.0234 64H48.4375L51.1328 47.8047C51.2266 47.0234 51.2188 46.3047 51.1094 45.6484C51 44.9922 50.7266 44.4688 50.2891 44.0781C49.8516 43.6719 49.1875 43.4531 48.2969 43.4219C47.3281 43.3906 46.4844 43.5859 45.7656 44.0078C45.0469 44.4141 44.4453 44.9609 43.9609 45.6484C43.4922 46.3359 43.1094 47.1016 42.8125 47.9453C42.5156 48.7734 42.3047 49.6016 42.1797 50.4297ZM56.9688 49.6562L54.6016 49.9844C54.7734 48.4844 55.1172 47.0312 55.6328 45.625C56.1484 44.2031 56.8516 42.9219 57.7422 41.7812C58.6328 40.6406 59.7188 39.7422 61 39.0859C62.2812 38.4297 63.7656 38.1172 65.4531 38.1484C66.8438 38.1953 68 38.4844 68.9219 39.0156C69.8438 39.5469 70.5547 40.2656 71.0547 41.1719C71.5703 42.0781 71.9062 43.1016 72.0625 44.2422C72.2188 45.3672 72.2344 46.5547 72.1094 47.8047L69.3906 64H62.7812L65.5 47.7812C65.5938 47 65.5859 46.2891 65.4766 45.6484C65.3672 44.9922 65.0938 44.4688 64.6562 44.0781C64.2344 43.6719 63.5781 43.4609 62.6875 43.4453C61.7969 43.4141 61.0156 43.5781 60.3438 43.9375C59.6875 44.2812 59.1328 44.7578 58.6797 45.3672C58.2266 45.9609 57.8594 46.6328 57.5781 47.3828C57.2969 48.1328 57.0938 48.8906 56.9688 49.6562ZM87.6484 29.875L81.7188 64H74.8516L80.7578 29.875H87.6484ZM98.3125 44.4531L97.3516 49.9375H82.2578L83.2188 44.4531H98.3125ZM102.414 29.875L101.477 35.3828H84.7891L85.75 29.875H102.414ZM107.289 60.7891L117.555 38.6406H124.82L109.961 67.8438C109.523 68.7656 109.023 69.6172 108.461 70.3984C107.914 71.1953 107.289 71.8828 106.586 72.4609C105.898 73.0547 105.109 73.5078 104.219 73.8203C103.344 74.1484 102.359 74.3125 101.266 74.3125C100.719 74.3125 100.188 74.2656 99.6719 74.1719C99.1562 74.0781 98.6406 73.9688 98.125 73.8438L98.5938 68.8516C98.7656 68.8672 98.9375 68.8828 99.1094 68.8984C99.2656 68.9141 99.4219 68.9219 99.5781 68.9219C100.359 68.9375 101.047 68.8438 101.641 68.6406C102.25 68.4531 102.781 68.1406 103.234 67.7031C103.688 67.2812 104.094 66.7266 104.453 66.0391L107.289 60.7891ZM108.344 38.6406L110.547 57.3672L110.242 64.1875L105.836 64.7031L101.5 38.6406H108.344Z" fill="#42C83C"/>
</svg>
